<?xml version="1.0" encoding="UTF-8" standalone="no"?><svg xmlns="http://www.w3.org/2000/svg" xmlns:xlink="http://www.w3.org/1999/xlink" contentScriptType="application/ecmascript" contentStyleType="text/css" height="594px" preserveAspectRatio="none" style="width:804px;height:594px;background:#FFFFFF;" version="1.1" viewBox="0 0 804 594" width="804px" zoomAndPan="magnify"><defs><filter height="300%" id="f1p7v8r3p22rj4" width="300%" x="-1" y="-1"><feGaussianBlur result="blurOut" stdDeviation="2.0"/><feColorMatrix in="blurOut" result="blurOut2" type="matrix" values="0 0 0 0 0 0 0 0 0 0 0 0 0 0 0 0 0 0 .4 0"/><feOffset dx="4.0" dy="4.0" in="blurOut2" result="blurOut3"/><feBlend in="SourceGraphic" in2="blurOut3" mode="normal"/></filter></defs><g><ellipse cx="311" cy="20" fill="#000000" filter="url(#f1p7v8r3p22rj4)" rx="10" ry="10" style="stroke:none;stroke-width:1.0;"/><rect fill="#FEFECE" filter="url(#f1p7v8r3p22rj4)" height="33.9688" rx="12.5" ry="12.5" style="stroke:#A80036;stroke-width:1.5;" width="121" x="250.5" y="50"/><text fill="#000000" font-family="sans-serif" font-size="12" lengthAdjust="spacing" textLength="101" x="260.5" y="71.1387">update schedule</text><polygon fill="#FEFECE" filter="url(#f1p7v8r3p22rj4)" points="256.5,103.9688,365.5,103.9688,377.5,115.9688,365.5,127.9688,256.5,127.9688,244.5,115.9688,256.5,103.9688" style="stroke:#A80036;stroke-width:1.5;"/><text fill="#000000" font-family="sans-serif" font-size="11" lengthAdjust="spacing" textLength="109" x="256.5" y="119.7769">"schedule empty?"</text><text fill="#000000" font-family="sans-serif" font-size="11" lengthAdjust="spacing" textLength="21" x="223.5" y="113.3745">yes</text><text fill="#000000" font-family="sans-serif" font-size="11" lengthAdjust="spacing" textLength="14" x="377.5" y="113.3745">no</text><rect fill="#FEFECE" filter="url(#f1p7v8r3p22rj4)" height="33.9688" rx="12.5" ry="12.5" style="stroke:#A80036;stroke-width:1.5;" width="213" x="11" y="137.9688"/><text fill="#000000" font-family="sans-serif" font-size="12" lengthAdjust="spacing" textLength="193" x="21" y="159.1074">notify user with empty schedule</text><rect fill="#FEFECE" filter="url(#f1p7v8r3p22rj4)" height="33.9688" rx="12.5" ry="12.5" style="stroke:#A80036;stroke-width:1.5;" width="202" x="403.5" y="137.9688"/><text fill="#000000" font-family="sans-serif" font-size="12" lengthAdjust="spacing" textLength="182" x="413.5" y="159.1074">send user the respective task</text><rect fill="#FEFECE" filter="url(#f1p7v8r3p22rj4)" height="33.9688" rx="12.5" ry="12.5" style="stroke:#A80036;stroke-width:1.5;" width="177" x="416" y="191.9375"/><text fill="#000000" font-family="sans-serif" font-size="12" lengthAdjust="spacing" textLength="157" x="426" y="213.0762">ask user if he did the task</text><polygon fill="#FEFECE" filter="url(#f1p7v8r3p22rj4)" points="460,245.9063,549,245.9063,561,257.9063,549,269.9063,460,269.9063,448,257.9063,460,245.9063" style="stroke:#A80036;stroke-width:1.5;"/><text fill="#000000" font-family="sans-serif" font-size="11" lengthAdjust="spacing" textLength="89" x="460" y="261.7144">"user did task?"</text><text fill="#000000" font-family="sans-serif" font-size="11" lengthAdjust="spacing" textLength="21" x="427" y="255.312">yes</text><text fill="#000000" font-family="sans-serif" font-size="11" lengthAdjust="spacing" textLength="14" x="561" y="255.312">no</text><rect fill="#FEFECE" filter="url(#f1p7v8r3p22rj4)" height="33.9688" rx="12.5" ry="12.5" style="stroke:#A80036;stroke-width:1.5;" width="229" x="254" y="279.9063"/><text fill="#000000" font-family="sans-serif" font-size="12" lengthAdjust="spacing" textLength="209" x="264" y="301.0449">remove task from queue/schedule</text><rect fill="#FEFECE" filter="url(#f1p7v8r3p22rj4)" height="33.9688" rx="12.5" ry="12.5" style="stroke:#A80036;stroke-width:1.5;" width="135" x="573" y="328.3086"/><text fill="#000000" font-family="sans-serif" font-size="12" lengthAdjust="spacing" textLength="115" x="583" y="349.4473">move time forward</text><rect fill="#FEFECE" filter="url(#f1p7v8r3p22rj4)" height="33.9688" rx="12.5" ry="12.5" style="stroke:#A80036;stroke-width:1.5;" width="255" x="513" y="397.2773"/><text fill="#000000" font-family="sans-serif" font-size="12" lengthAdjust="spacing" textLength="235" x="523" y="418.416">merge tasks that reached the deadline</text><polygon fill="#FEFECE" filter="url(#f1p7v8r3p22rj4)" points="570.5,279.9063,710.5,279.9063,722.5,291.9063,710.5,303.9063,570.5,303.9063,558.5,291.9063,570.5,279.9063" style="stroke:#A80036;stroke-width:1.5;"/><text fill="#000000" font-family="sans-serif" font-size="11" lengthAdjust="spacing" textLength="14" x="644.5" y="314.1167">no</text><text fill="#000000" font-family="sans-serif" font-size="11" lengthAdjust="spacing" textLength="140" x="570.5" y="295.7144">"debt-free mode?") (yes</text><polygon fill="#FEFECE" filter="url(#f1p7v8r3p22rj4)" points="640.5,451.2461,652.5,463.2461,640.5,475.2461,628.5,463.2461,640.5,451.2461" style="stroke:#A80036;stroke-width:1.5;"/><polygon fill="#FEFECE" filter="url(#f1p7v8r3p22rj4)" points="504.5,481.2461,516.5,493.2461,504.5,505.2461,492.5,493.2461,504.5,481.2461" style="stroke:#A80036;stroke-width:1.5;"/><polygon fill="#FEFECE" filter="url(#f1p7v8r3p22rj4)" points="311,511.2461,323,523.2461,311,535.2461,299,523.2461,311,511.2461" style="stroke:#A80036;stroke-width:1.5;"/><ellipse cx="311" cy="566.2461" fill="#FFFFFF" filter="url(#f1p7v8r3p22rj4)" rx="11" ry="11" style="stroke:#000000;stroke-width:1.0;"/><ellipse cx="311" cy="566.2461" fill="#000000" rx="6" ry="6" style="stroke:#7F7F7F;stroke-width:1.0;"/><line style="stroke:#A80036;stroke-width:1.5;" x1="311" x2="311" y1="30" y2="50"/><polygon fill="#A80036" points="307,40,311,50,315,40,311,44" style="stroke:#A80036;stroke-width:1.0;"/><line style="stroke:#A80036;stroke-width:1.5;" x1="504.5" x2="504.5" y1="171.9375" y2="191.9375"/><polygon fill="#A80036" points="500.5,181.9375,504.5,191.9375,508.5,181.9375,504.5,185.9375" style="stroke:#A80036;stroke-width:1.0;"/><line style="stroke:#A80036;stroke-width:1.5;" x1="640.5" x2="640.5" y1="362.2773" y2="397.2773"/><polygon fill="#A80036" points="636.5,387.2773,640.5,397.2773,644.5,387.2773,640.5,391.2773" style="stroke:#A80036;stroke-width:1.0;"/><line style="stroke:#A80036;stroke-width:1.5;" x1="640.5" x2="640.5" y1="303.9063" y2="328.3086"/><polygon fill="#A80036" points="636.5,318.3086,640.5,328.3086,644.5,318.3086,640.5,322.3086" style="stroke:#A80036;stroke-width:1.0;"/><line style="stroke:#A80036;stroke-width:1.5;" x1="722.5" x2="778" y1="291.9063" y2="291.9063"/><polygon fill="#A80036" points="774,369.7773,778,379.7773,782,369.7773,778,373.7773" style="stroke:#A80036;stroke-width:1.5;"/><line style="stroke:#A80036;stroke-width:1.5;" x1="778" x2="778" y1="291.9063" y2="463.2461"/><line style="stroke:#A80036;stroke-width:1.5;" x1="778" x2="652.5" y1="463.2461" y2="463.2461"/><polygon fill="#A80036" points="662.5,459.2461,652.5,463.2461,662.5,467.2461,658.5,463.2461" style="stroke:#A80036;stroke-width:1.0;"/><line style="stroke:#A80036;stroke-width:1.5;" x1="640.5" x2="640.5" y1="431.2461" y2="451.2461"/><polygon fill="#A80036" points="636.5,441.2461,640.5,451.2461,644.5,441.2461,640.5,445.2461" style="stroke:#A80036;stroke-width:1.0;"/><line style="stroke:#A80036;stroke-width:1.5;" x1="448" x2="368.5" y1="257.9063" y2="257.9063"/><line style="stroke:#A80036;stroke-width:1.5;" x1="368.5" x2="368.5" y1="257.9063" y2="279.9063"/><polygon fill="#A80036" points="364.5,269.9063,368.5,279.9063,372.5,269.9063,368.5,273.9063" style="stroke:#A80036;stroke-width:1.0;"/><line style="stroke:#A80036;stroke-width:1.5;" x1="561" x2="640.5" y1="257.9063" y2="257.9063"/><line style="stroke:#A80036;stroke-width:1.5;" x1="640.5" x2="640.5" y1="257.9063" y2="279.9063"/><polygon fill="#A80036" points="636.5,269.9063,640.5,279.9063,644.5,269.9063,640.5,273.9063" style="stroke:#A80036;stroke-width:1.0;"/><line style="stroke:#A80036;stroke-width:1.5;" x1="368.5" x2="368.5" y1="313.875" y2="493.2461"/><line style="stroke:#A80036;stroke-width:1.5;" x1="368.5" x2="492.5" y1="493.2461" y2="493.2461"/><polygon fill="#A80036" points="482.5,489.2461,492.5,493.2461,482.5,497.2461,486.5,493.2461" style="stroke:#A80036;stroke-width:1.0;"/><line style="stroke:#A80036;stroke-width:1.5;" x1="640.5" x2="640.5" y1="475.2461" y2="493.2461"/><line style="stroke:#A80036;stroke-width:1.5;" x1="640.5" x2="516.5" y1="493.2461" y2="493.2461"/><polygon fill="#A80036" points="526.5,489.2461,516.5,493.2461,526.5,497.2461,522.5,493.2461" style="stroke:#A80036;stroke-width:1.0;"/><line style="stroke:#A80036;stroke-width:1.5;" x1="504.5" x2="504.5" y1="225.9063" y2="245.9063"/><polygon fill="#A80036" points="500.5,235.9063,504.5,245.9063,508.5,235.9063,504.5,239.9063" style="stroke:#A80036;stroke-width:1.0;"/><line style="stroke:#A80036;stroke-width:1.5;" x1="244.5" x2="117.5" y1="115.9688" y2="115.9688"/><line style="stroke:#A80036;stroke-width:1.5;" x1="117.5" x2="117.5" y1="115.9688" y2="137.9688"/><polygon fill="#A80036" points="113.5,127.9688,117.5,137.9688,121.5,127.9688,117.5,131.9688" style="stroke:#A80036;stroke-width:1.0;"/><line style="stroke:#A80036;stroke-width:1.5;" x1="377.5" x2="504.5" y1="115.9688" y2="115.9688"/><line style="stroke:#A80036;stroke-width:1.5;" x1="504.5" x2="504.5" y1="115.9688" y2="137.9688"/><polygon fill="#A80036" points="500.5,127.9688,504.5,137.9688,508.5,127.9688,504.5,131.9688" style="stroke:#A80036;stroke-width:1.0;"/><line style="stroke:#A80036;stroke-width:1.5;" x1="117.5" x2="117.5" y1="171.9375" y2="523.2461"/><line style="stroke:#A80036;stroke-width:1.5;" x1="117.5" x2="299" y1="523.2461" y2="523.2461"/><polygon fill="#A80036" points="289,519.2461,299,523.2461,289,527.2461,293,523.2461" style="stroke:#A80036;stroke-width:1.0;"/><line style="stroke:#A80036;stroke-width:1.5;" x1="504.5" x2="504.5" y1="505.2461" y2="523.2461"/><line style="stroke:#A80036;stroke-width:1.5;" x1="504.5" x2="323" y1="523.2461" y2="523.2461"/><polygon fill="#A80036" points="333,519.2461,323,523.2461,333,527.2461,329,523.2461" style="stroke:#A80036;stroke-width:1.0;"/><line style="stroke:#A80036;stroke-width:1.5;" x1="311" x2="311" y1="83.9688" y2="103.9688"/><polygon fill="#A80036" points="307,93.9688,311,103.9688,315,93.9688,311,97.9688" style="stroke:#A80036;stroke-width:1.0;"/><line style="stroke:#A80036;stroke-width:1.5;" x1="311" x2="311" y1="535.2461" y2="555.2461"/><polygon fill="#A80036" points="307,545.2461,311,555.2461,315,545.2461,311,549.2461" style="stroke:#A80036;stroke-width:1.0;"/><!--MD5=[eeaa835a894409c0add42dfca95edef8]
@startuml
start
:update schedule;

if ("schedule empty?") then (yes)
  :notify user with empty schedule;
else (no)
  :send user the respective task;
  :ask user if he did the task;

  if ("user did task?") then (yes)
    :remove task from queue/schedule;
  else (no)

    if ("debt-free mode?") (yes)
    else (no)
      :move time forward;
      :merge tasks that reached the deadline;
    endif
    
  endif

endif

stop
@enduml

PlantUML version 1.2021.12(Tue Oct 05 16:01:58 UTC 2021)
(GPL source distribution)
Java Runtime: Java(TM) SE Runtime Environment
JVM: Java HotSpot(TM) 64-Bit Server VM
Default Encoding: UTF-8
Language: en
Country: US
--></g></svg>